<svg width="24" height="25" viewBox="0 0 24 25" fill="none" xmlns="http://www.w3.org/2000/svg">
<path fill-rule="evenodd" clip-rule="evenodd" d="M12 23.144C6.06294 23.144 1.25 18.3311 1.25 12.394C1.25 6.45698 6.06294 1.64404 12 1.64404C17.9371 1.64404 22.75 6.45698 22.75 12.394C22.75 18.3311 17.9371 23.144 12 23.144ZM16.48 9.7716C16.9645 9.50661 17.1425 8.89897 16.8775 8.41442C16.6125 7.92986 16.0049 7.75186 15.5204 8.01686C13.6917 9.0169 12.1796 10.9469 11.1629 12.5036C10.7872 13.079 10.4662 13.6237 10.2094 14.0851C9.96984 13.8527 9.73258 13.651 9.52038 13.4832C9.2427 13.2637 8.99282 13.0905 8.81063 12.9712L8.49559 12.7755C8.01585 12.5019 7.40513 12.669 7.13152 13.1488C6.85797 13.6284 7.02493 14.2389 7.50442 14.5127L7.71471 14.6442C7.85752 14.7377 8.05764 14.8763 8.27997 15.0521C8.73753 15.4138 9.23126 15.888 9.54198 16.4075C9.73267 16.7263 10.0844 16.9131 10.4553 16.8927C10.8261 16.8722 11.1551 16.6476 11.3096 16.3099L11.4079 16.1045C11.4756 15.9661 11.577 15.7637 11.709 15.5144C11.9735 15.0147 12.3581 14.3312 12.8374 13.5972C13.8208 12.0915 15.1086 10.5215 16.48 9.7716Z" fill="#01120D"/>
</svg>
