<svg width="80" height="80" viewBox="0 0 80 80" fill="none" xmlns="http://www.w3.org/2000/svg">
<rect width="80" height="80" rx="40" fill="#F4F4F4"/>
<path fill-rule="evenodd" clip-rule="evenodd" d="M23.7474 22C21.7613 22 20.1133 23.648 20.1133 25.6308V31.5761H60.9577V25.6308C60.8483 23.7607 59.4159 22 57.3269 22H23.7474ZM54.7936 26.8444C56.3354 26.8444 56.3354 29.265 54.7936 29.265H40.4791C38.9373 29.265 38.8312 26.8444 40.4791 26.8444H54.7936ZM30.8997 26.7317C31.5595 26.7317 32.1133 27.2854 32.1133 27.9453C32.1133 28.7146 31.5595 29.265 30.8997 29.265C30.1304 29.265 29.58 28.7112 29.58 27.9453C29.58 27.2854 30.1337 26.7317 30.8997 26.7317ZM26.0553 26.7317C26.7151 26.7317 27.2689 27.2854 27.2689 27.9453C27.2689 28.7146 26.7151 29.265 26.0553 29.265C25.3954 29.265 24.845 28.7112 24.845 27.9453C24.845 27.2854 25.3921 26.7317 26.0553 26.7317Z" fill="#726352"/>
<path fill-rule="evenodd" clip-rule="evenodd" d="M20 34V54.3658H20.1127C20.1127 56.3487 21.7607 58 23.7469 58H57.3263C59.1965 58 60.8477 56.3454 60.8477 54.3658V34H20ZM42.7665 36.4902C43.5093 36.4902 44.2785 37.1733 44 38.0685L39.1556 52.383C38.9865 52.9367 38.5421 53.1755 38.0879 53.1755C37.3617 53.1755 36.6156 52.562 36.9572 51.6104L41.6922 37.2993C41.8944 36.7256 42.3288 36.4869 42.7698 36.4869L42.7665 36.4902ZM47.6474 38.9107C47.8828 38.9107 48.1415 38.987 48.4067 39.1694L55.4529 43.9044C56.2255 44.3454 56.2255 45.4463 55.4529 45.8873L48.4067 50.7317C48.168 50.861 47.9425 50.9141 47.7303 50.9141C46.6427 50.9141 45.9663 49.4883 46.9743 48.7521L52.5913 44.9025L46.9743 41.0495C45.9895 40.4195 46.6096 38.9174 47.6474 38.9174V38.9107ZM33.1838 38.7682C34.205 38.7682 34.8848 40.1973 33.8734 40.9301L28.2564 44.7831L33.8734 48.6361C34.8582 49.2628 34.2415 50.7682 33.2633 50.7682C33.0412 50.7682 32.7991 50.6919 32.5537 50.5062L25.3982 45.7745C24.6289 45.3335 24.6289 44.3421 25.3982 43.7917L32.5537 38.9439C32.7693 38.8179 32.9848 38.7615 33.1871 38.7615L33.1838 38.7682Z" fill="#726352"/>
</svg>
