<svg width="80" height="81" viewBox="0 0 80 81" fill="none" xmlns="http://www.w3.org/2000/svg">
<g id="Background">
<rect y="0.197021" width="80" height="80" rx="40" fill="#F4F4F4"/>
<g id="Group">
<path id="Vector" fill-rule="evenodd" clip-rule="evenodd" d="M22 21.9998V57.9998H57.9306V55.8685H24.0581V21.9998H22Z" fill="#726352"/>
<path id="Vector_2" d="M32.5793 41.0308H26.1895V53.7412H32.5793V41.0308Z" fill="#726352"/>
<path id="Vector_3" d="M41.0315 36.8416H34.7109V53.7413H41.0315V36.8416Z" fill="#726352"/>
<path id="Vector_4" d="M49.4143 36.8416H43.0938V53.7413H49.4143V36.8416Z" fill="#726352"/>
<path id="Vector_5" d="M57.9309 41.0308H51.5449V53.7412H57.9309V41.0308Z" fill="#726352"/>
<path id="Vector_6" fill-rule="evenodd" clip-rule="evenodd" d="M42.0621 24.1963C39.1076 24.1963 36.3609 25.8466 35.0568 28.528L32.5139 33.6098C31.4868 35.6026 29.494 36.8413 27.2936 36.8413H26.1934V38.9033H27.2936C30.248 38.9033 33.064 37.2568 34.372 34.5754L36.9148 29.4897C37.9458 27.497 39.8693 26.2621 42.0659 26.2621C44.2625 26.2621 46.2591 27.497 47.2862 29.4897L49.8291 34.5754C51.1332 37.2529 53.9492 38.9033 56.9075 38.9033H58.0077V36.8413H56.9075C54.707 36.8413 52.7143 35.6026 51.6833 33.6098L49.1405 28.528C47.7671 25.8505 45.0858 24.1963 42.0621 24.1963Z" fill="#726352"/>
</g>
</g>
</svg>
