<svg width="80" height="80" viewBox="0 0 80 80" fill="none" xmlns="http://www.w3.org/2000/svg">
<rect width="80" height="80" rx="40" fill="#F4F4F4"/>
<path fill-rule="evenodd" clip-rule="evenodd" d="M44.2895 22.0032C36.729 22.0032 30.582 28.1502 30.582 35.7172C30.582 36.8714 30.7409 37.9899 31.0165 39.063L37.2283 32.8512C37.0305 32.4362 36.9138 31.9791 36.9138 31.496C36.9138 29.7453 38.3306 28.3285 40.0748 28.3285C41.8191 28.3285 43.2423 29.7453 43.2423 31.496C43.2423 32.2547 42.9603 32.9485 42.5096 33.4932L45.7711 38.9398C45.9786 38.9009 46.1861 38.8782 46.4001 38.8782C46.8151 38.8782 47.2106 38.9625 47.5705 39.1084L56.3079 29.1164C53.9736 24.879 49.4671 22 44.2928 22L44.2895 22.0032Z" fill="#726352"/>
<path fill-rule="evenodd" clip-rule="evenodd" d="M46.4 40.9889C45.8197 40.9889 45.3496 41.4622 45.3496 42.0458C45.3496 42.6294 45.8229 43.0962 46.4 43.0962C46.9771 43.0962 47.457 42.6229 47.457 42.0458C47.457 41.4687 46.9836 40.9889 46.4 40.9889Z" fill="#726352"/>
<path fill-rule="evenodd" clip-rule="evenodd" d="M40.07 30.4424C39.4896 30.4424 39.0195 30.9157 39.0195 31.4993C39.0195 32.0829 39.4929 32.5497 40.07 32.5497C40.647 32.5497 41.1269 32.0764 41.1269 31.4993C41.1269 30.9222 40.6535 30.4424 40.07 30.4424Z" fill="#726352"/>
<path fill-rule="evenodd" clip-rule="evenodd" d="M57.2446 31.2594L49.1491 40.5058C49.4085 40.9629 49.5641 41.4849 49.5641 42.0458C49.5641 43.79 48.1473 45.2068 46.3966 45.2068C44.6459 45.2068 43.2356 43.79 43.2356 42.0458C43.2356 41.2807 43.5176 40.5901 43.9683 40.0422L40.7068 34.5955C40.4993 34.6344 40.2918 34.6571 40.0713 34.6571C39.5883 34.6571 39.1311 34.5404 38.7161 34.3426L31.7749 41.2839C32.3195 42.4997 33.0393 43.6182 33.8952 44.62L32.5724 45.9428L31.0746 44.4514L22 53.5292L26.4708 58L35.5486 48.9255L34.0573 47.4276L35.3833 46.1016C37.7792 48.1604 40.8851 49.4215 44.2828 49.4215C51.8498 49.4215 57.9968 43.2745 57.9968 35.714C57.9968 34.1513 57.7212 32.6535 57.2381 31.2529L57.2446 31.2594Z" fill="#726352"/>
</svg>
