<svg width="80" height="81" viewBox="0 0 80 81" fill="none" xmlns="http://www.w3.org/2000/svg">
<g id="Background">
<rect y="0.197021" width="80" height="80" rx="40" fill="#F4F4F4"/>
<g id="Group">
<path id="Vector" d="M58.184 47.353H22V51.681H58.184V47.353Z" fill="#726352"/>
<path id="Vector_2" d="M30.5087 26.3279H22V45.2884H30.5087V26.3279Z" fill="#726352"/>
<path id="Vector_3" d="M58.1845 26.3281H49.6758V45.2887H58.1845V26.3281Z" fill="#726352"/>
<path id="Vector_4" fill-rule="evenodd" clip-rule="evenodd" d="M34.7992 53.7383V55.8691H30.5117V58H49.6747V55.8691H45.3835V53.7383H34.7992Z" fill="#726352"/>
<path id="Vector_5" fill-rule="evenodd" clip-rule="evenodd" d="M43.3086 22.1399V26.328H47.3936C46.9778 24.2671 45.3879 22.5484 43.3086 22.1399Z" fill="#726352"/>
<path id="Vector_6" fill-rule="evenodd" clip-rule="evenodd" d="M32.6543 22V45.2885H47.5298V28.3889H41.1667V22H32.658H32.6543ZM45.3842 38.9695V41.0305H43.2386V38.9695H45.3842ZM41.163 38.9695V41.0305H34.7999V38.9695H41.163ZM45.3842 34.7115V36.8387H39.0174V34.7115H45.3842ZM36.8755 34.7115V36.8387H34.7999V34.7115H36.8755ZM45.3842 30.5197V32.5807H43.2386V30.5197H45.3842ZM41.163 30.5197V32.5807H34.7999V30.5197H41.163Z" fill="#726352"/>
</g>
</g>
</svg>
