<svg width="80" height="80" viewBox="0 0 80 80" fill="none" xmlns="http://www.w3.org/2000/svg">
<rect width="80" height="80" rx="40" fill="#F4F4F4"/>
<g clip-path="url(#clip0_27902_535)">
<path fill-rule="evenodd" clip-rule="evenodd" d="M30.4045 22V29.3766C30.4045 29.9596 29.917 30.4436 29.334 30.4436H21.9609V54.7992C21.9609 56.5445 23.4129 58.0035 25.0663 58.0035H46.3166C47.9629 58.0035 49.422 56.6469 49.422 54.7992V45.8752L41.9499 53.3472C41.9499 53.6369 41.7556 53.7358 41.5613 53.7358L35.2551 55.5764C34.8877 55.6895 34.5238 55.7425 34.1776 55.7425C31.8424 55.7425 30.0442 53.3931 30.8885 51.1144L31.376 49.6589H27.398C26.0414 49.6589 25.946 47.4296 27.398 47.4296H32.0544L32.8316 45.3912H27.497C26.1403 45.3912 26.0414 43.1619 27.497 43.1619H34.3861L36.421 41.1235H27.3945C26.0379 41.1235 25.9425 38.9896 27.3945 38.9896H38.5549L40.5933 36.8557H27.2991C25.9425 36.8557 25.8436 34.7219 27.2991 34.7219H42.6283C43.4055 33.9447 48.7437 28.4157 49.422 27.8328V25.116C49.422 23.4661 48.1607 22.0071 46.3166 22.0071H30.4045V22ZM40.0104 30.5425C41.2716 30.5425 41.4624 32.581 40.0104 32.581H33.7042C32.3476 32.581 32.2487 30.5425 33.7042 30.5425H40.0104Z" fill="#726352"/>
<path fill-rule="evenodd" clip-rule="evenodd" d="M34.4772 46.7441L32.9263 51.6937C32.5906 52.7006 33.2725 53.711 34.2829 53.711C34.4383 53.711 34.6044 53.6862 34.774 53.6332L39.8189 51.9834L34.4807 46.7441H34.4772Z" fill="#726352"/>
<path fill-rule="evenodd" clip-rule="evenodd" d="M53.5875 28.5889C52.6548 28.5889 51.7044 28.9386 50.8777 29.7653L49.0371 31.5106L55.0536 37.4317L56.7988 35.6864C59.8088 32.7506 56.8094 28.5889 53.591 28.5889H53.5875Z" fill="#726352"/>
<path fill-rule="evenodd" clip-rule="evenodd" d="M47.4816 33.1602L35.7383 44.9034L41.6558 50.8175L49.5165 42.9604L53.3956 39.0777L47.4816 33.1602Z" fill="#726352"/>
<path fill-rule="evenodd" clip-rule="evenodd" d="M28.4628 22.6816L22.6406 28.4049H28.4628V22.6816Z" fill="#726352"/>
</g>
<defs>
<clipPath id="clip0_27902_535">
<rect width="36.0777" height="36" fill="white" transform="translate(21.9609 22)"/>
</clipPath>
</defs>
</svg>
