<svg width="80" height="81" viewBox="0 0 80 81" fill="none" xmlns="http://www.w3.org/2000/svg">
<g id="Background">
<rect y="0.197021" width="80" height="80" rx="40" fill="#F4F4F4"/>
<path id="Vector" fill-rule="evenodd" clip-rule="evenodd" d="M19.538 22.6499C17.879 22.6499 17.7582 25.1351 19.538 25.1351H20.838C21.4313 25.1351 22.0246 25.6072 22.1418 26.2038L25.8149 46.8097C23.3247 49.1778 24.9836 53.4417 28.5396 53.4417H28.7776C28.6604 53.9138 28.5396 54.2688 28.5396 54.741C28.5396 56.8748 30.3194 58.6499 32.3299 58.6499C34.4613 58.6499 36.2411 56.8748 36.2411 54.741C36.2411 54.2688 36.1239 53.9138 35.8859 53.4417H46.7845C46.5464 53.9138 46.4256 54.2688 46.4256 54.741C46.4256 56.8748 48.2054 58.6499 50.3367 58.6499C52.3509 58.6499 54.1271 56.8748 54.1271 54.741C54.1271 54.2688 54.0099 53.9138 53.889 53.4417H55.31C56.0204 53.4417 56.6137 52.8488 56.6137 52.1387C56.6137 51.3116 56.0204 50.7186 55.31 50.7186H28.188C28.1367 50.7296 28.0855 50.7333 28.0379 50.7333C27.0088 50.7333 27.0747 48.3506 28.6641 48.3506H55.9179C56.5075 48.3506 56.9836 48.1127 57.1044 47.5234L62.2021 32.2465C62.3193 31.7743 62.2021 31.4157 61.9641 31.0606C61.6052 30.4677 61.0156 30.3469 58.291 30.3469H25.5805L24.632 25.7316C24.394 23.9529 22.735 22.6536 20.838 22.6536H19.538V22.6499ZM50.5821 53.5551C51.2926 53.5551 51.8858 54.1481 51.8858 54.8581C51.8858 55.6889 51.2926 56.2782 50.5821 56.2782C49.8717 56.2782 49.282 55.6889 49.282 54.8581C49.3992 54.0273 49.8717 53.5551 50.5821 53.5551ZM32.6888 53.5551C33.3993 53.5551 33.9889 54.1481 33.9889 54.8581C33.9889 55.6889 33.3993 56.2782 32.6888 56.2782C31.9783 56.2782 31.3851 55.6889 31.3851 54.8581C31.3851 54.0273 31.9783 53.5551 32.6888 53.5551Z" fill="#726352"/>
</g>
</svg>
