<svg width="80" height="81" viewBox="0 0 80 81" fill="none" xmlns="http://www.w3.org/2000/svg">
<rect y="0.197021" width="80" height="80" rx="40" fill="#F4F4F4"/>
<path fill-rule="evenodd" clip-rule="evenodd" d="M40.0493 21.9998C37.223 21.9998 34.7812 24.3411 34.7812 27.2713C34.7812 30.2014 37.223 32.4389 40.0493 32.4389C42.8755 32.4389 45.3208 30.0975 45.3208 27.2713C45.3208 24.445 42.976 21.9998 40.0493 21.9998Z" fill="#726352"/>
<path fill-rule="evenodd" clip-rule="evenodd" d="M42.1959 57.9997C43.8549 57.9997 45.417 56.5346 45.417 54.7786V47.2662C45.8084 47.0722 46.1963 46.8748 46.5877 46.4869C46.882 46.6809 47.173 46.9753 47.6613 47.2662V52.7282C47.6613 54.3872 49.123 55.8488 50.782 55.8488H52.9294C54.5884 55.8488 56.05 54.3872 56.05 52.7282V47.2662C57.3212 46.7813 58.1004 45.6072 58.1004 44.1455V38.9745C58.1974 36.6331 56.9298 34.5827 54.9798 33.412C55.6621 32.7297 56.1505 31.656 56.1505 30.4854C56.1505 28.144 54.2005 26.291 51.8557 26.291C49.5109 26.291 47.6613 28.144 47.6613 30.4854C47.6613 31.656 48.1462 32.7297 48.832 33.412C48.1462 33.8034 47.4674 34.2918 46.9756 34.8771C46.6846 34.0978 45.9988 33.2181 45.4135 32.5358C44.3433 33.7064 42.8782 34.2918 41.3161 34.4857V39.8508C41.3161 40.5435 40.71 40.9106 40.1143 40.9106C39.5186 40.9106 38.9748 40.5712 38.9748 39.8508V34.4857C37.4127 34.2918 35.9511 33.509 34.8774 32.5358C34.0981 33.2181 33.6063 34.0978 33.2184 34.8771C32.73 34.2918 32.1447 33.8034 31.4624 33.412C32.1447 32.7297 32.6331 31.656 32.6331 30.4854C32.6331 28.144 30.6831 26.291 28.3417 26.291C26.0004 26.291 24.1474 28.144 24.1474 30.4854C24.1474 31.656 24.6358 32.7297 25.3181 33.412C23.3681 34.4857 22 36.6331 22 38.9745V44.1455C22 45.5102 22.8763 46.7813 24.1474 47.2662V52.7282C24.1474 54.3872 25.6125 55.8488 27.268 55.8488H29.3185C31.0745 55.8488 32.5361 54.3872 32.5361 52.7282V47.2662C32.9275 47.0722 33.2219 46.8748 33.6098 46.4869C34.0012 46.6809 34.1951 46.9753 34.6835 47.2662V54.7786C34.6835 56.4342 36.1451 57.9997 37.9011 57.9997" fill="#726352"/>
</svg>
