<svg width="11" height="11" viewBox="0 0 11 11" fill="none" xmlns="http://www.w3.org/2000/svg">
<g clip-path="url(#clip0_27902_613)">
<path d="M0.683561 1.08289L0.372347 1.40415L0.783953 1.75552C1.45992 2.31771 2.22959 2.74605 3.09296 3.04053C3.42091 3.15431 3.70535 3.22793 3.94629 3.26139C4.20731 3.30155 4.58545 3.32497 5.08072 3.33167C5.42874 3.33167 5.75669 3.32497 6.06456 3.31159C6.38581 3.2982 6.60333 3.27812 6.7171 3.25135C6.80411 3.23128 6.85431 3.23462 6.86769 3.26139C6.88108 3.28816 6.84259 3.35844 6.75224 3.47222C6.66189 3.58599 6.49959 3.77004 6.26534 4.02437C6.03779 4.25862 5.70315 4.59995 5.26142 5.04837L3.62504 6.69479L0.111328 10.2085L0.392425 10.5097L0.6936 10.7908L4.20731 7.27706L5.85373 5.64068C6.30215 5.19895 6.64348 4.86431 6.87773 4.63676C7.13206 4.40251 7.31611 4.24021 7.42988 4.14986C7.54366 4.05951 7.61394 4.02102 7.64071 4.03441C7.66748 4.04779 7.67082 4.09799 7.65075 4.185C7.62398 4.29877 7.6039 4.51629 7.59051 4.83754C7.57713 5.14541 7.57043 5.47336 7.57043 5.82138C7.57713 6.31665 7.60055 6.69479 7.64071 6.95581C7.67417 7.19675 7.74779 7.48119 7.86157 7.80914C8.15605 8.67251 8.58439 9.44218 9.14658 10.1181L9.49795 10.5298L9.81921 10.2185L10.1505 9.90732L9.89952 9.63627C9.76567 9.5091 9.5515 9.20793 9.25701 8.73274C8.82868 8.02331 8.56096 7.26033 8.45388 6.44381C8.3468 5.63398 8.40201 4.83252 8.61953 4.03943C8.83704 3.24633 9.20682 2.51849 9.72886 1.85591L10.1405 1.33387L9.8694 1.04274L9.58831 0.761639L9.31725 0.972461C9.00938 1.20671 8.67809 1.43259 8.32337 1.65011C7.96865 1.86762 7.67417 2.02323 7.43992 2.11693C7.07851 2.25747 6.61838 2.36623 6.05954 2.4432C5.50069 2.52017 5.04056 2.53523 4.67915 2.48838C4.05672 2.41476 3.42593 2.23907 2.78677 1.96132C2.14761 1.68357 1.64063 1.36399 1.26583 1.00258L0.994775 0.751599L0.683561 1.08289Z" fill="#FFFBF4"/>
</g>
<defs>
<clipPath id="clip0_27902_613">
<rect width="10.0392" height="10.0392" fill="white" transform="matrix(1 0 0 -1 0.111328 10.7908)"/>
</clipPath>
</defs>
</svg>
