<svg width="345" height="211" viewBox="0 0 345 211" fill="none" xmlns="http://www.w3.org/2000/svg">
<mask id="mask0_27902_523" style="mask-type:alpha" maskUnits="userSpaceOnUse" x="0" y="0" width="345" height="211">
<g clip-path="url(#clip0_27902_523)">
<path d="M23.2047 0H321.795L325.556 0.294276L329.127 1.14557L332.456 2.50555L335.495 4.33216L338.2 6.57707L340.518 9.19192L342.409 12.1326L343.817 15.3507L344.696 18.8021L345 22.4406V128.805L344.075 138.694L341.509 146.051L337.627 151.331L332.742 154.997L327.181 157.509L321.261 159.325L315.296 160.91L309.61 162.72L304.525 165.217L300.36 168.862L297.207 173.686L294.916 178.956L293.064 184.446L291.211 189.932L288.934 195.189L285.795 199.994L281.368 204.122L275.224 207.347L266.923 209.447L256.042 210.197H23.2047L19.4477 209.905L15.8803 209.056L12.5511 207.698L9.5151 205.875L6.8103 203.637L4.4919 201.028L2.6013 198.092L1.1937 194.878L0.3105 191.429L0 187.794V22.4406L0.3036 18.8021L1.18335 15.3507L2.59095 12.1326L4.48155 9.19192L6.79995 6.57707L9.50475 4.33216L12.5442 2.50555L15.8735 1.14557L19.4442 0.294276L23.2047 0Z" fill="black"/>
</g>
</mask>
<g mask="url(#mask0_27902_523)">
<rect width="345" height="210.197" fill="#FFFBF4"/>
</g>
<defs>
<clipPath id="clip0_27902_523">
<rect width="345" height="210.197" fill="white"/>
</clipPath>
</defs>
</svg>
