<svg width="80" height="80" viewBox="0 0 80 80" fill="none" xmlns="http://www.w3.org/2000/svg">
<rect width="80" height="80" rx="40" fill="#F4F4F4"/>
<path d="M44.6949 43.1479C48.2292 38.6033 51.2397 31.599 47.6852 26.2334C42.9075 19.0196 31.656 21.5098 30.3855 30.038C29.4564 36.2686 34.0313 43.0533 38.4508 47.0234C38.6333 47.1856 39.5523 47.983 39.6875 48.0202C39.8125 48.054 39.8632 48.0202 39.9645 47.9593C40.2484 47.7972 40.8599 47.2295 41.137 46.9795C42.35 45.8847 43.6914 44.4352 44.6915 43.1479H44.6949ZM38.4373 49.8109C37.596 49.8751 33.984 50.5374 36.3695 51.5004C37.8562 52.1018 42.4412 52.2065 43.732 51.2267C44.0935 50.953 44.0394 50.7199 43.6846 50.4597C42.6642 49.7163 39.6875 49.713 38.4373 49.8109ZM33.0041 50.6962C31.3249 50.98 28.4157 51.6862 27.348 53.0884C26.4222 54.3048 27.5237 55.3252 28.5542 55.93C33.244 58.6939 46.1512 58.6567 50.8917 55.9908C51.7432 55.5111 52.8987 54.619 52.446 53.5006C51.7668 51.8281 48.04 50.9429 46.4215 50.6084L47.5737 51.2706C49.2158 52.639 46.0025 53.4905 45.0598 53.7034C41.9445 54.4062 37.5892 54.4231 34.4739 53.7203C33.5245 53.5074 30.274 52.585 32.0209 51.2301L33.0041 50.6894V50.6962Z" fill="#726352"/>
<path d="M44.6949 43.1479C43.6947 44.4352 42.3533 45.8847 41.1403 46.9795C40.8667 47.2261 40.2517 47.7972 39.9679 47.9593C39.8665 48.0168 39.8158 48.054 39.6908 48.0202C39.5557 47.983 38.6366 47.1856 38.4542 47.0234C34.0346 43.0533 29.4597 36.2719 30.3889 30.038C31.6559 21.5098 42.9075 19.0196 47.6851 26.2334C51.2397 31.599 48.2291 38.6033 44.6949 43.1479ZM44.0259 31.474C44.0259 29.1257 42.1236 27.2234 39.7753 27.2234C37.427 27.2234 35.5247 29.1257 35.5247 31.474C35.5247 33.8223 37.427 35.7246 39.7753 35.7246C42.1236 35.7246 44.0259 33.8223 44.0259 31.474Z" fill="#726352"/>
<path d="M33.0041 50.6928L32.0209 51.2334C30.274 52.5883 33.5245 53.5107 34.4739 53.7236C37.5892 54.4264 41.9445 54.4095 45.0598 53.7067C46.0025 53.4938 49.2158 52.639 47.5737 51.2739L46.4215 50.6117C48.04 50.9462 51.7668 51.8315 52.446 53.504C52.8987 54.6224 51.7432 55.5178 50.8917 55.9942C46.1512 58.6601 33.244 58.6973 28.5542 55.9334C27.5237 55.3252 26.4222 54.3048 27.348 53.0918C28.4157 51.6895 31.3249 50.9834 33.0041 50.6995V50.6928Z" fill="#726352"/>
<path d="M38.4382 49.8108C39.6883 49.7128 42.6651 49.7162 43.6855 50.4595C44.0403 50.7197 44.0943 50.9528 43.7328 51.2265C42.4387 52.2098 37.8536 52.1016 36.3703 51.5002C33.9849 50.5372 37.6002 49.8784 38.4382 49.8108Z" fill="#726352"/>
<path d="M39.776 35.7248C42.1235 35.7248 44.0266 33.8217 44.0266 31.4742C44.0266 29.1267 42.1235 27.2236 39.776 27.2236C37.4284 27.2236 35.5254 29.1267 35.5254 31.4742C35.5254 33.8217 37.4284 35.7248 39.776 35.7248Z" fill="#F4F4F4"/>
</svg>
